<?xml version="1.0" encoding="UTF-8" standalone="no"?>
<!-- Created with Inkscape (http://www.inkscape.org/) -->

<svg
   width="297mm"
   height="210mm"
   viewBox="0 0 297 210"
   version="1.1"
   id="svg5"
   inkscape:version="1.1 (c68e22c387, 2021-05-23)"
   sodipodi:docname="drawing.svg"
   xmlns:inkscape="http://www.inkscape.org/namespaces/inkscape"
   xmlns:sodipodi="http://sodipodi.sourceforge.net/DTD/sodipodi-0.dtd"
   xmlns="http://www.w3.org/2000/svg"
   xmlns:svg="http://www.w3.org/2000/svg">
  <sodipodi:namedview
     id="namedview7"
     pagecolor="#ffffff"
     bordercolor="#666666"
     borderopacity="1.0"
     inkscape:pageshadow="2"
     inkscape:pageopacity="0.0"
     inkscape:pagecheckerboard="0"
     inkscape:document-units="mm"
     showgrid="false"
     objecttolerance="10"
     inkscape:snap-perpendicular="false"
     inkscape:snap-tangential="false"
     guidetolerance="10"
     inkscape:object-paths="true"
     inkscape:snap-intersection-paths="true"
     inkscape:snap-smooth-nodes="true"
     inkscape:snap-midpoints="true"
     inkscape:snap-center="true"
     inkscape:snap-others="true"
     inkscape:snap-object-midpoints="true"
     inkscape:snap-text-baseline="true"
     inkscape:snap-page="true"
     gridtolerance="10"
     inkscape:zoom="1.0410112"
     inkscape:cx="466.37346"
     inkscape:cy="522.08852"
     inkscape:window-width="1920"
     inkscape:window-height="1017"
     inkscape:window-x="-8"
     inkscape:window-y="-8"
     inkscape:window-maximized="1"
     inkscape:current-layer="layer1"
     units="mm" />
  <defs
     id="defs2">
    <inkscape:path-effect
       effect="skeletal"
       id="path-effect10676"
       is_visible="true"
       lpeversion="1"
       pattern="m -8.2995173,144.56228 c 0,-1.00268 2.5545663,-1.81645 5.7021569,-1.81645 3.14759075,0 5.702157,0.81377 5.702157,1.81645 0,1.00268 -2.55456625,1.81645 -5.702157,1.81645 -3.1475906,0 -5.7021569,-0.81377 -5.7021569,-1.81645 z"
       copytype="single_stretched"
       prop_scale="1"
       scale_y_rel="false"
       spacing="0"
       normal_offset="0"
       tang_offset="0"
       prop_units="false"
       vertical_pattern="false"
       hide_knot="false"
       fuse_tolerance="0" />
  </defs>
  <g
     inkscape:label="Layer 1"
     inkscape:groupmode="layer"
     id="layer1">
    <path
       id="path1026"
       style="fill:#ff0000;fill-opacity:0;stroke:#000000;stroke-width:1.05833;stroke-linecap:round;stroke-linejoin:round;stroke-miterlimit:4;stroke-dasharray:none;stroke-opacity:1"
       d="m 97.944301,22.561684 a 71.220168,71.220199 0 0 0 -55.238487,69.398866 71.220168,71.220199 0 0 0 39.948463,63.97129 32.112651,32.112651 0 0 1 31.271473,-24.8636 32.112651,32.112651 0 0 1 31.27458,24.86256 71.220168,71.220199 0 0 0 32.69671,-32.69878 32.112651,32.112651 0 0 1 -24.8636,-31.27147 32.112651,32.112651 0 0 1 24.87239,-31.274578 71.220168,71.220199 0 0 0 -47.45085,-37.99923 32.112651,32.112651 0 0 1 15.58354,27.520801 A 32.112651,32.112651 0 0 1 113.92575,82.319795 32.112651,32.112651 0 0 1 81.812987,50.207543 32.112651,32.112651 0 0 1 97.944301,22.561684 Z" />
    <circle
       style="fill:#ff0000;fill-opacity:0;fill-rule:evenodd;stroke:#000000;stroke-width:1.05833;stroke-miterlimit:4;stroke-dasharray:none;stroke-opacity:1"
       id="path33-0-0-2-1-3"
       cx="44.293209"
       cy="91.960678"
       r="32.112652" />
    <circle
       style="fill:#ff0000;fill-opacity:0;fill-rule:evenodd;stroke:#000000;stroke-width:1.05833;stroke-miterlimit:4;stroke-dasharray:none;stroke-opacity:1"
       id="path33-0-0-2-1-3-8"
       cx="231.34764"
       cy="52.477165"
       r="32.112652" />
    <path
       id="path33-0-0-2-1-3-8-6"
       style="fill:#ff0000;fill-opacity:0;fill-rule:evenodd;stroke:#000000;stroke-width:1.058;stroke-linecap:round;stroke-linejoin:round;stroke-miterlimit:4;stroke-dasharray:none;stroke-opacity:1"
       d="m 231.34808,99.739393 a 32.112651,32.112651 0 0 0 -15.34895,3.928437 11.555611,11.555611 0 0 1 11.5161,11.55434 11.555611,11.555611 0 0 1 -11.55589,11.55537 11.555611,11.555611 0 0 1 -11.55537,-11.55537 11.555611,11.555611 0 0 1 0.094,-0.95497 32.112651,32.112651 0 0 0 -5.26273,17.58497 32.112651,32.112651 0 0 0 32.11279,32.11226 32.112651,32.112651 0 0 0 32.11226,-32.11226 32.112651,32.112651 0 0 0 -5.56607,-18.06712 11.555611,11.555611 0 0 1 0.12712,1.29088 11.555611,11.555611 0 0 1 -11.55536,11.55588 11.555611,11.555611 0 0 1 -11.5559,-11.55588 11.555611,11.555611 0 0 1 11.55538,-11.55538 32.112651,32.112651 0 0 0 -15.11743,-3.781157 z" />
    <circle
       style="fill:#ff0000;fill-opacity:0;fill-rule:evenodd;stroke:#000000;stroke-width:1.05833;stroke-miterlimit:4;stroke-dasharray:none;stroke-opacity:0"
       id="path33-0-0-2-1-3-8-5"
       cx="113.92576"
       cy="163.18089"
       r="32.112652" />
    <path
       id="path33-0-0-2-1-3-5"
       style="fill:#ff0000;fill-opacity:0;fill-rule:evenodd;stroke:#000000;stroke-width:0.529167;stroke-miterlimit:4;stroke-dasharray:none"
       d="m 39.87808,124.36001 c -0.0018,-0.19713 -0.0027,-0.39446 -0.0027,-0.59201 m 125.02046,22.55432 c -9.35791,23.89186 -33.58628,41.67098 -60.79516,41.67098 m 0,0 c -23.105571,0 -43.3614,-12.20122 -54.675935,-30.51211 -5.958301,-9.64262 -9.437059,-20.97954 -9.546693,-33.12118"
       sodipodi:nodetypes="cccccsc" />
    <path
       id="path33-0-0-2-1-3-5-1"
       style="fill:#ff0000;fill-opacity:0;fill-rule:evenodd;stroke:#000000;stroke-width:0.529167;stroke-miterlimit:4;stroke-dasharray:none"
       d="m 34.374565,123.10556 c -0.0019,-0.2009 -0.0029,-0.40201 -0.0029,-0.60333 M 101.887,187.95587 c -24.289187,0 -45.582651,-12.43458 -57.47679,-31.09568 -6.263524,-9.82703 -9.920486,-21.38078 -10.035737,-33.75463"
       sodipodi:nodetypes="cccsc" />
    <circle
       style="fill:#ffffff;fill-opacity:1;stroke:#000000;stroke-width:1.05833;stroke-miterlimit:4;stroke-dasharray:none;stroke-opacity:1"
       id="path2643"
       cx="95.787361"
       cy="76.706673"
       r="4.640625" />
    <circle
       style="fill:#000000;fill-opacity:1;stroke:#000000;stroke-width:2.25001;stroke-miterlimit:4;stroke-dasharray:none;stroke-opacity:1"
       id="path2643-48"
       cx="98.524147"
       cy="144.16824"
       r="2.3203125" />
    <circle
       style="fill:#000000;fill-opacity:1;stroke:#000000;stroke-width:1.12501;stroke-miterlimit:4;stroke-dasharray:none;stroke-opacity:1"
       id="path2643-48-8"
       cx="104.8135"
       cy="139.16058"
       r="1.1601562" />
    <circle
       style="fill:#000000;fill-opacity:1;stroke:#000000;stroke-width:0.940905;stroke-miterlimit:4;stroke-dasharray:none;stroke-opacity:1"
       id="path2643-48-3"
       cx="222.09364"
       cy="120.72919"
       r="0.97030497" />
    <circle
       style="fill:#000000;fill-opacity:1;stroke:#000000;stroke-width:0.636438;stroke-miterlimit:4;stroke-dasharray:none;stroke-opacity:1"
       id="path2643-48-8-0"
       cx="224.04231"
       cy="115.56712"
       r="0.65632123" />
    <circle
       style="fill:#000000;fill-opacity:1;stroke:#000000;stroke-width:0.636438;stroke-miterlimit:4;stroke-dasharray:none;stroke-opacity:1"
       id="path2643-48-8-0-8"
       cx="217.47652"
       cy="123.05611"
       r="0.65632123" />
    <circle
       style="fill:#000000;fill-opacity:1;stroke:#000000;stroke-width:0.89941;stroke-miterlimit:4;stroke-dasharray:none;stroke-opacity:1"
       id="path2643-48-3-5"
       cx="-240.59268"
       cy="120.79272"
       r="0.92751282"
       transform="scale(-1,1)" />
    <circle
       style="fill:#000000;fill-opacity:1;stroke:#000000;stroke-width:0.636438;stroke-miterlimit:4;stroke-dasharray:none;stroke-opacity:1"
       id="path2643-48-8-0-9"
       cx="-238.70755"
       cy="116.09629"
       r="0.65632123"
       transform="scale(-1,1)" />
    <circle
       style="fill:#000000;fill-opacity:1;stroke:#000000;stroke-width:0.636438;stroke-miterlimit:4;stroke-dasharray:none;stroke-opacity:1"
       id="path2643-48-8-0-8-6"
       cx="-245.27335"
       cy="123.05611"
       r="0.65632123"
       transform="scale(-1,1)" />
    <circle
       style="fill:#ffffff;fill-opacity:1;stroke:#000000;stroke-width:1.05833;stroke-miterlimit:4;stroke-dasharray:none;stroke-opacity:1"
       id="path2643-4"
       cx="128.26872"
       cy="134.45381"
       r="4.640625" />
    <circle
       style="fill:#ffffff;fill-opacity:1;stroke:#000000;stroke-width:1.05833;stroke-miterlimit:4;stroke-dasharray:none;stroke-opacity:1"
       id="path2643-4-8"
       cx="231.34813"
       cy="170.72194"
       r="4.640625" />
    <circle
       style="fill:#ffffff;fill-opacity:1;stroke:#000000;stroke-width:1.05833;stroke-miterlimit:4;stroke-dasharray:none;stroke-opacity:1"
       id="path2643-4-4"
       cx="164.89584"
       cy="141.6817"
       r="4.640625" />
    <circle
       style="fill:#00ff00;fill-opacity:1;stroke:#000000;stroke-width:1.05833;stroke-miterlimit:4;stroke-dasharray:none;stroke-opacity:1"
       id="path2643-4-4-2"
       cx="231.34764"
       cy="84.589821"
       r="4.640625" />
    <circle
       style="fill:#00ffff;fill-opacity:1;stroke:#000000;stroke-width:1.05833;stroke-miterlimit:4;stroke-dasharray:none;stroke-opacity:1"
       id="path2643-4-4-2-7"
       cx="263.4603"
       cy="52.477165"
       r="4.640625" />
    <circle
       style="fill:#ff00ff;fill-opacity:1;stroke:#000000;stroke-width:1.05833;stroke-miterlimit:4;stroke-dasharray:none;stroke-opacity:1"
       id="path2643-4-4-2-7-8"
       cx="231.34764"
       cy="20.36451"
       r="4.640625" />
    <circle
       style="fill:#ffffff;fill-opacity:1;stroke:#000000;stroke-width:1.05833;stroke-miterlimit:4;stroke-dasharray:none;stroke-opacity:1"
       id="path2643-4-4-2-7-8-1"
       cx="199.235"
       cy="52.477165"
       r="4.640625" />
  </g>
</svg>
